<svg width="1504" height="1056" viewBox="0 0 1504 1056" fill="none" xmlns="http://www.w3.org/2000/svg">
<rect width="1504" height="1056" fill="white"/>
<rect x="108" y="123" width="1288.73" height="809" rx="36" fill="url(#paint0_linear_300_31)" stroke="#F1F4FF" stroke-width="20"/>
<g filter="url(#filter0_d_300_31)">
<path fill-rule="evenodd" clip-rule="evenodd" d="M676.57 291C653.598 291 631.575 300.149 615.342 316.423C599.112 332.696 590 354.758 590 377.755C590 400.751 599.112 422.814 615.342 439.086C620.737 444.495 626.772 449.117 633.269 452.877C626.772 456.638 620.737 461.26 615.342 466.669C599.112 482.941 590 505.003 590 528C590 550.997 599.112 573.059 615.342 589.331C620.737 594.74 626.772 599.362 633.269 603.123C626.772 606.883 620.737 611.505 615.342 616.914C599.112 633.186 590 655.249 590 678.245C590 701.242 599.112 723.304 615.342 739.577C631.575 755.851 653.598 765 676.57 765C699.542 765 721.565 755.851 737.797 739.577C754.028 723.304 763.14 701.242 763.14 678.245V589.192C763.773 589.87 764.419 590.538 765.076 591.197C781.308 607.47 803.331 616.62 826.303 616.62C849.275 616.62 871.298 607.47 887.53 591.197C903.761 574.924 912.873 552.862 912.873 529.865C912.873 506.868 903.761 484.806 887.53 468.534C881.698 462.686 875.118 457.759 868.015 453.845C875.167 449.92 881.79 444.968 887.658 439.086C903.888 422.814 913 400.751 913 377.755C913 354.758 903.888 332.696 887.658 316.423C871.426 300.149 849.402 291 826.43 291L676.57 291ZM739.86 441.245H676.57C659.796 441.245 643.702 434.565 631.83 422.663C619.956 410.759 613.279 394.606 613.279 377.755C613.279 360.904 619.956 344.75 631.83 332.847C643.702 320.944 659.796 314.264 676.57 314.264H739.86V441.245ZM739.86 464.509L739.86 525.162C739.776 526.724 739.733 528.292 739.733 529.865C739.733 531.438 739.776 533.006 739.86 534.568V591.491H676.57C659.796 591.491 643.702 584.811 631.83 572.908C619.956 561.004 613.279 544.851 613.279 528C613.279 511.149 619.956 494.996 631.83 483.092C643.695 471.196 659.778 464.517 676.541 464.509H739.86ZM781.563 484.957C770.639 495.91 764.113 510.459 763.14 525.84V533.89C764.113 549.271 770.639 563.821 781.563 574.773C793.435 586.676 809.529 593.356 826.303 593.356C843.077 593.356 859.171 586.676 871.043 574.773C882.916 562.869 889.594 546.716 889.594 529.865C889.594 513.014 882.916 496.861 871.043 484.957C859.171 473.054 843.077 466.374 826.303 466.374C809.529 466.374 793.435 473.054 781.563 484.957ZM826.43 314.264H763.14L763.14 441.245H826.43C843.204 441.245 859.298 434.565 871.17 422.663C883.044 410.759 889.721 394.606 889.721 377.755C889.721 360.904 883.044 344.75 871.17 332.847C859.298 320.944 843.204 314.264 826.43 314.264ZM631.83 633.337C643.702 621.435 659.796 614.755 676.57 614.755H739.86V678.245C739.86 695.096 733.183 711.249 721.31 723.153C709.438 735.056 693.343 741.736 676.57 741.736C659.796 741.736 643.702 735.056 631.83 723.153C619.956 711.249 613.279 695.096 613.279 678.245C613.279 661.395 619.956 645.241 631.83 633.337Z" fill="#FF6F4A"/>
</g>
<defs>
<filter id="filter0_d_300_31" x="589" y="291" width="325" height="478" filterUnits="userSpaceOnUse" color-interpolation-filters="sRGB">
<feFlood flood-opacity="0" result="BackgroundImageFix"/>
<feColorMatrix in="SourceAlpha" type="matrix" values="0 0 0 0 0 0 0 0 0 0 0 0 0 0 0 0 0 0 127 0" result="hardAlpha"/>
<feOffset dy="3"/>
<feGaussianBlur stdDeviation="0.5"/>
<feComposite in2="hardAlpha" operator="out"/>
<feColorMatrix type="matrix" values="0 0 0 0 0 0 0 0 0 0 0 0 0 0 0 0 0 0 0.25 0"/>
<feBlend mode="normal" in2="BackgroundImageFix" result="effect1_dropShadow_300_31"/>
<feBlend mode="normal" in="SourceGraphic" in2="effect1_dropShadow_300_31" result="shape"/>
</filter>
<linearGradient id="paint0_linear_300_31" x1="760.779" y1="1263.22" x2="757.974" y2="117.91" gradientUnits="userSpaceOnUse">
<stop stop-color="#E34C26" stop-opacity="0.03"/>
<stop stop-color="#F24E1E" stop-opacity="0.4"/>
<stop offset="0.532099" stop-color="#F6F8FF" stop-opacity="0.953459"/>
<stop offset="1" stop-color="white"/>
</linearGradient>
</defs>
</svg>
