<svg width="1504" height="1056" viewBox="0 0 1504 1056" fill="none" xmlns="http://www.w3.org/2000/svg">
<rect width="1504" height="1056" fill="black"/>
<rect x="108" y="123" width="1288.73" height="809" rx="36" fill="url(#paint0_radial_300_35)" stroke="#262626" stroke-width="20"/>
<g filter="url(#filter0_d_300_35)">
<path fill-rule="evenodd" clip-rule="evenodd" d="M677.57 291C654.598 291 632.575 300.149 616.342 316.423C600.112 332.696 591 354.758 591 377.755C591 400.751 600.112 422.814 616.342 439.086C621.737 444.495 627.772 449.117 634.269 452.877C627.772 456.638 621.737 461.26 616.342 466.669C600.112 482.941 591 505.003 591 528C591 550.997 600.112 573.059 616.342 589.331C621.737 594.74 627.772 599.362 634.269 603.123C627.772 606.883 621.737 611.505 616.342 616.914C600.112 633.186 591 655.249 591 678.245C591 701.242 600.112 723.304 616.342 739.577C632.575 755.851 654.598 765 677.57 765C700.542 765 722.565 755.851 738.797 739.577C755.028 723.304 764.14 701.242 764.14 678.245V589.192C764.773 589.87 765.419 590.538 766.076 591.197C782.308 607.47 804.331 616.62 827.303 616.62C850.275 616.62 872.298 607.47 888.53 591.197C904.761 574.924 913.873 552.862 913.873 529.865C913.873 506.868 904.761 484.806 888.53 468.534C882.698 462.686 876.118 457.759 869.015 453.845C876.167 449.92 882.79 444.968 888.658 439.086C904.888 422.814 914 400.751 914 377.755C914 354.758 904.888 332.696 888.658 316.423C872.426 300.149 850.402 291 827.43 291L677.57 291ZM740.86 441.245H677.57C660.796 441.245 644.702 434.565 632.83 422.663C620.956 410.759 614.279 394.606 614.279 377.755C614.279 360.904 620.956 344.75 632.83 332.847C644.702 320.944 660.796 314.264 677.57 314.264H740.86V441.245ZM740.86 464.509L740.86 525.162C740.776 526.724 740.733 528.292 740.733 529.865C740.733 531.438 740.776 533.006 740.86 534.568V591.491H677.57C660.796 591.491 644.702 584.811 632.83 572.908C620.956 561.004 614.279 544.851 614.279 528C614.279 511.149 620.956 494.996 632.83 483.092C644.695 471.196 660.778 464.517 677.541 464.509H740.86ZM782.563 484.957C771.639 495.91 765.113 510.459 764.14 525.84V533.89C765.113 549.271 771.639 563.821 782.563 574.773C794.435 586.676 810.529 593.356 827.303 593.356C844.077 593.356 860.171 586.676 872.043 574.773C883.916 562.869 890.594 546.716 890.594 529.865C890.594 513.014 883.916 496.861 872.043 484.957C860.171 473.054 844.077 466.374 827.303 466.374C810.529 466.374 794.435 473.054 782.563 484.957ZM827.43 314.264H764.14L764.14 441.245H827.43C844.204 441.245 860.298 434.565 872.17 422.663C884.044 410.759 890.721 394.606 890.721 377.755C890.721 360.904 884.044 344.75 872.17 332.847C860.298 320.944 844.204 314.264 827.43 314.264ZM632.83 633.337C644.702 621.435 660.796 614.755 677.57 614.755H740.86V678.245C740.86 695.096 734.183 711.249 722.31 723.153C710.438 735.056 694.343 741.736 677.57 741.736C660.796 741.736 644.702 735.056 632.83 723.153C620.956 711.249 614.279 695.096 614.279 678.245C614.279 661.395 620.956 645.241 632.83 633.337Z" fill="white"/>
</g>
<defs>
<filter id="filter0_d_300_35" x="590" y="291" width="325" height="478" filterUnits="userSpaceOnUse" color-interpolation-filters="sRGB">
<feFlood flood-opacity="0" result="BackgroundImageFix"/>
<feColorMatrix in="SourceAlpha" type="matrix" values="0 0 0 0 0 0 0 0 0 0 0 0 0 0 0 0 0 0 127 0" result="hardAlpha"/>
<feOffset dy="3"/>
<feGaussianBlur stdDeviation="0.5"/>
<feComposite in2="hardAlpha" operator="out"/>
<feColorMatrix type="matrix" values="0 0 0 0 0 0 0 0 0 0 0 0 0 0 0 0 0 0 0.25 0"/>
<feBlend mode="normal" in2="BackgroundImageFix" result="effect1_dropShadow_300_35"/>
<feBlend mode="normal" in="SourceGraphic" in2="effect1_dropShadow_300_35" result="shape"/>
</filter>
<radialGradient id="paint0_radial_300_35" cx="0" cy="0" r="1" gradientUnits="userSpaceOnUse" gradientTransform="translate(759 128.5) rotate(-90) scale(474 932.108)">
<stop stop-color="#681800"/>
<stop offset="1"/>
</radialGradient>
</defs>
</svg>
