<svg width="1504" height="1056" viewBox="0 0 1504 1056" fill="none" xmlns="http://www.w3.org/2000/svg">
<rect width="1504" height="1056" fill="white"/>
<rect x="108" y="123" width="1288.73" height="809" rx="36" fill="url(#paint0_linear_300_67)" stroke="#F1F4FF" stroke-width="20"/>
<path d="M518.625 644C516.375 645 514.25 644.875 512.25 643.625C511.5 643.125 510.75 642.5 510 641.75C509.25 641.25 508.625 640.5 508.125 639.5C506.125 636.5 503.625 634 500.625 632C499.125 630.75 497.875 629.375 496.875 627.875C495.875 626.625 495 625.125 494.25 623.375L493.125 620C492.125 618 491.625 615.75 491.625 613.25C491.875 610 492 606.75 492 603.5C492 600.25 491.75 597 491.25 593.75C491 592.5 490.875 591.375 490.875 590.375C490.875 589.125 490.875 587.875 490.875 586.625C490.625 584.625 490.5 582.5 490.5 580.25C490.5 578 490.5 575.875 490.5 573.875C490.5 572.125 490.5 570.5 490.5 569C490.5 567.5 490.375 565.875 490.125 564.125C489.875 562.625 489.75 561.125 489.75 559.625C489.75 558.125 489.75 556.625 489.75 555.125V492.125C489.75 490.375 489.625 489.125 489.375 488.375C488.875 486.375 488.625 484.5 488.625 482.75C488.625 481 488.375 479.25 487.875 477.5C487.875 476.25 488 475.375 488.25 474.875C489.25 471.625 489.75 467.625 489.75 462.875C489.5 458.375 489.375 454 489.375 449.75C489.625 445.25 489.625 440.75 489.375 436.25V432.875L488.625 432.125C488.375 431.625 487.875 431.75 487.125 432.5L485.625 433.625C485.375 434.125 485.125 434.625 484.875 435.125C484.625 435.375 484.25 435.75 483.75 436.25C482.25 438.25 480.125 439.5 477.375 440C475.625 440.5 474.25 440.25 473.25 439.25C472.5 438.75 471.75 438.25 471 437.75C470.25 437 469.625 436.375 469.125 435.875C467.875 434.625 466.5 433.375 465 432.125C463.75 430.625 462.375 429.25 460.875 428C457.625 425.5 455.375 422 454.125 417.5L453 413.375C452.75 410.875 453 408.375 453.75 405.875C454.25 404.375 454.75 402.875 455.25 401.375C455.75 399.875 456.25 398.5 456.75 397.25C457.25 395.25 458.125 393.75 459.375 392.75C460.625 391.75 462 390.875 463.5 390.125C464 390.125 464.5 390.125 465 390.125C465.5 389.875 465.875 389.75 466.125 389.75C466.875 389.25 467.25 388.875 467.25 388.625C467.75 387.375 468.5 387 469.5 387.5C470 387.5 470.25 387.125 470.25 386.375C470.5 386.125 470.875 386 471.375 386C471.875 386.25 472.25 386.625 472.5 387.125C473 387.375 473.5 387.625 474 387.875C474.25 388.125 474.875 388.25 475.875 388.25C476.875 387.75 477.875 387.5 478.875 387.5C479.875 387.5 480.875 387.5 481.875 387.5C483.125 387.5 484.375 387.375 485.625 387.125C487.125 386.625 488.5 386.25 489.75 386C490.5 385.5 491.125 384.875 491.625 384.125L492.75 379.25L493.875 373.625C494.125 372.375 494.5 371.25 495 370.25C495.5 369.25 496 368.25 496.5 367.25L498 365C500.5 360.5 504.5 357.625 510 356.375C510.5 356.125 510.875 356 511.125 356C511.375 356 511.625 355.875 511.875 355.625C512.625 355.375 513.375 355.25 514.125 355.25C514.875 355.25 515.625 355.25 516.375 355.25H519.375C524.125 355.5 527.75 357.625 530.25 361.625C530.75 362.375 531.25 363.25 531.75 364.25C532.25 365.25 532.625 366.25 532.875 367.25C533.625 368.75 534.875 369.375 536.625 369.125C536.875 368.875 537.25 368.75 537.75 368.75C540.5 368 543.25 367.25 546 366.5C548.75 365.75 551.5 364.875 554.25 363.875C557.5 362.625 560.75 361.625 564 360.875C567.25 359.875 570.5 358.875 573.75 357.875C576.5 356.875 579.25 356 582 355.25C585 354.5 587.875 353.75 590.625 353L599.625 350.75C603.875 349.5 608.25 348.375 612.75 347.375C617.25 346.375 621.625 345.375 625.875 344.375C628.125 343.875 630.375 343.125 632.625 342.125C634.375 340.875 636.25 340.25 638.25 340.25C640.25 340 642.125 339.875 643.875 339.875H651.375C655.125 340.125 658.125 341.625 660.375 344.375C663.125 346.875 664.625 350.25 664.875 354.5V357.5C664.875 360.75 663.75 363.5 661.5 365.75C659.25 368 657 369.875 654.75 371.375C654.5 371.625 654.125 371.75 653.625 371.75C653.375 371.75 653 371.875 652.5 372.125C650.25 372.125 647.875 372.75 645.375 374C643.625 374.75 641.75 374.875 639.75 374.375C638.5 373.875 637.25 373.75 636 374C634.75 374 633.5 374.125 632.25 374.375C631.25 374.625 630.25 374.875 629.25 375.125C628.25 375.375 627.25 375.625 626.25 375.875C625.25 376.125 624.25 376.375 623.25 376.625C622.25 376.875 621.125 377.125 619.875 377.375C613.875 378.125 608.375 380.125 603.375 383.375C602.875 383.875 602.125 384.125 601.125 384.125C599.625 384.125 598.5 384.375 597.75 384.875C596.75 385.125 595.75 385.5 594.75 386C594 386.5 593.125 387 592.125 387.5C591.125 388 590 388.5 588.75 389C587.5 389.5 586.25 390 585 390.5C583.5 390.75 582 391.125 580.5 391.625C579 392.125 577.5 392.625 576 393.125C575.25 393.375 574.5 393.625 573.75 393.875C573.25 394.125 572.75 394.375 572.25 394.625C569.75 395.375 567.25 396.375 564.75 397.625C562.5 398.875 560.25 400.25 558 401.75L556.125 402.875C555.125 403.125 554 403.5 552.75 404C551.5 404.5 550.25 405 549 405.5C547.75 405.75 546.5 406.125 545.25 406.625C544 407.125 542.75 407.75 541.5 408.5C541.25 408.75 541 408.875 540.75 408.875C539 409.125 537.5 409.875 536.25 411.125C535.25 412.125 534.125 413.25 532.875 414.5C532.375 415 532.125 415.625 532.125 416.375V446.75C532.125 447.75 532 448.75 531.75 449.75C531.75 450.75 531.625 451.875 531.375 453.125C531.375 454.625 531.25 455.625 531 456.125C531 458.875 532.25 459.875 534.75 459.125C538.25 458.125 541.75 457.125 545.25 456.125C549 455.125 552.5 454.125 555.75 453.125C559.25 451.875 562.5 450.75 565.5 449.75C568.75 448.75 572 447.75 575.25 446.75C576.5 446.5 577.625 446.25 578.625 446C579.625 445.5 580.625 445.125 581.625 444.875C585.625 443.375 589.625 441.875 593.625 440.375C597.875 438.875 602 437.625 606 436.625C608.75 436.125 611.375 435.5 613.875 434.75C616.375 433.75 618.875 432.875 621.375 432.125C623.625 431.375 625.875 430.75 628.125 430.25C630.375 429.75 632.5 429.25 634.5 428.75C636 428.5 637.5 428.5 639 428.75C640.5 428.75 641.875 429.125 643.125 429.875C643.625 430.125 644.125 430.375 644.625 430.625C645.375 430.625 646 430.75 646.5 431C647.75 431 648.75 431.5 649.5 432.5C650 432.75 650.375 433 650.625 433.25C651.125 433.5 651.625 433.875 652.125 434.375C652.125 434.375 652.5 434.75 653.25 435.5C653.25 435.75 653.25 436 653.25 436.25C653.5 436.25 653.625 436.5 653.625 437C655.625 440 656.625 442 656.625 443C656.875 443.75 657.125 445.375 657.375 447.875C657.375 449.375 657 450.375 656.25 450.875L655.125 452.375C654.125 455.125 652.125 457.125 649.125 458.375C648.125 458.875 647.125 459.5 646.125 460.25C645.375 460.75 644.375 461.25 643.125 461.75L641.25 462.875C640.25 463.875 639.125 464.375 637.875 464.375C635.125 464.875 632.375 465.625 629.625 466.625C627.125 467.625 624.5 468.5 621.75 469.25C620.75 469.5 619.75 470.125 618.75 471.125C617 472.625 614.875 473.75 612.375 474.5C611.375 474.75 610.375 475.125 609.375 475.625C608.625 475.875 607.625 476.125 606.375 476.375C602.125 477.625 597.875 479.125 593.625 480.875C589.625 482.625 585.5 484.375 581.25 486.125C579.5 486.875 577.625 487.625 575.625 488.375C573.875 489.125 572 489.75 570 490.25C568.75 490.75 567.375 491.375 565.875 492.125C564.375 492.625 563 493.375 561.75 494.375C560.75 494.875 559.75 495.375 558.75 495.875C557.75 496.125 556.625 496.5 555.375 497C551.625 498.25 547.875 499.5 544.125 500.75C540.375 502 536.5 503.25 532.5 504.5C531.75 504.5 531.25 504.625 531 504.875C529.75 505.375 529.125 506.125 529.125 507.125C528.875 508.625 528.625 510.125 528.375 511.625C528.375 512.875 528.375 514.125 528.375 515.375V517.625C528.875 518.625 529.125 519.875 529.125 521.375C529.125 522.625 529.125 523.875 529.125 525.125C529.125 525.625 528.875 526.375 528.375 527.375C527.375 528.375 526.875 529.75 526.875 531.5C526.625 533 526.5 534.5 526.5 536C526.5 537.5 526.25 539 525.75 540.5C525.5 542.25 525.375 543.875 525.375 545.375C525.625 546.875 526.125 548.375 526.875 549.875C527.625 551.375 528 553 528 554.75C527.75 559 528.375 563.75 529.875 569C530.125 569.75 530.25 571 530.25 572.75C529.5 575 529.375 577.875 529.875 581.375C529.875 582.375 529.875 583.625 529.875 585.125C529.875 586.375 529.75 587.625 529.5 588.875C529 589.625 529 591 529.5 593C529.5 593.5 529.5 594.125 529.5 594.875C529.75 595.375 529.875 595.875 529.875 596.375C530.125 599.625 530.375 602.875 530.625 606.125C531.125 609.375 531.5 612.625 531.75 615.875C532 617.375 532 618.875 531.75 620.375C531.5 621.625 531.125 622.875 530.625 624.125C529.875 627.625 528.625 630.5 526.875 632.75C525.875 634 525 635.25 524.25 636.5C523.5 638 522.75 639.375 522 640.625C521.75 641.375 521.25 642 520.5 642.5C519.75 643 519.125 643.5 518.625 644ZM759.993 629.75C759.743 629.5 759.368 629.375 758.868 629.375C756.368 627.875 753.868 626.5 751.368 625.25C749.118 623.75 746.993 622.125 744.993 620.375C743.993 619.875 743.368 619.375 743.118 618.875C740.868 617.625 738.868 616.125 737.118 614.375C735.368 612.375 733.743 610.25 732.243 608C731.743 607.5 731.243 606.875 730.743 606.125C730.243 605.375 729.618 604.625 728.868 603.875C726.368 601.375 724.368 598.375 722.868 594.875C722.618 594.125 722.243 593.375 721.743 592.625C721.243 591.875 720.743 591.125 720.243 590.375C718.743 588.375 717.618 586.5 716.868 584.75C716.368 582.75 715.618 580.875 714.618 579.125C713.618 577.125 712.618 575.25 711.618 573.5C711.368 572.5 710.993 571.5 710.493 570.5C709.993 569.5 709.618 568.5 709.368 567.5C709.368 566.25 708.993 564.875 708.243 563.375C707.243 560.625 706.243 557.875 705.243 555.125C704.493 552.125 703.743 549.125 702.993 546.125C702.493 545.125 702.243 544.375 702.243 543.875C700.743 540.625 699.618 537.25 698.868 533.75C698.118 530.25 697.368 526.875 696.618 523.625L694.368 506.75C694.118 506.25 693.993 505.625 693.993 504.875C693.993 504.125 693.993 503.5 693.993 503C693.993 501.5 693.993 500.125 693.993 498.875C693.993 497.375 693.743 495.875 693.243 494.375C692.743 491.125 692.868 488.125 693.618 485.375C693.618 484.375 693.618 483.5 693.618 482.75C693.868 481.75 693.993 480.75 693.993 479.75C693.993 478.5 693.993 477.25 693.993 476C694.243 474.5 694.493 473.25 694.743 472.25C694.993 471.5 695.118 470.5 695.118 469.25C695.618 467 695.868 464.875 695.868 462.875C696.118 460.625 696.368 458.5 696.618 456.5C697.368 453 697.743 449.625 697.743 446.375C697.743 445.375 697.743 444.5 697.743 443.75C697.993 442.75 698.243 441.75 698.493 440.75C698.493 438.5 698.368 436.875 698.118 435.875C697.368 434.875 697.243 433.5 697.743 431.75C698.243 430.75 698.493 430 698.493 429.5C698.743 429 698.868 428.5 698.868 428C698.868 427.25 699.243 426.75 699.993 426.5H702.618C703.618 426.5 704.243 426.125 704.493 425.375C704.743 424.375 705.618 423.625 707.118 423.125C708.368 422.625 709.493 422.25 710.493 422C711.493 421.5 712.493 420.875 713.493 420.125C714.243 419.625 715.118 419.375 716.118 419.375C717.118 419.375 718.118 419.5 719.118 419.75L725.868 422C726.118 422.25 726.243 422.375 726.243 422.375C726.493 422.375 726.743 422.5 726.993 422.75C728.993 424.75 730.618 427 731.868 429.5C733.368 432 734.243 434.75 734.493 437.75C734.493 438.75 734.493 439.75 734.493 440.75C734.493 441.5 734.243 442.375 733.743 443.375C733.493 444.875 733.243 446.375 732.993 447.875C732.743 449.375 732.493 451 732.243 452.75C731.743 455.25 731.368 457.75 731.118 460.25C731.118 462.5 731.118 464.875 731.118 467.375C730.868 468.375 730.743 469.375 730.743 470.375C730.743 471.125 730.618 472 730.368 473C730.118 476 729.993 479 729.993 482C729.993 485 730.243 487.875 730.743 490.625C730.743 490.875 730.743 491.25 730.743 491.75C730.993 492.25 730.993 492.75 730.743 493.25C730.743 495.75 730.993 498.375 731.493 501.125C731.993 503.875 732.368 506.625 732.618 509.375C732.868 511.875 733.118 514.25 733.368 516.5C733.618 518.75 733.993 521 734.493 523.25C734.993 524.25 735.243 525.25 735.243 526.25C735.493 527.25 735.743 528.25 735.993 529.25C736.993 534 738.118 538.625 739.368 543.125C740.618 547.625 742.243 552.125 744.243 556.625C745.493 559.375 746.743 561.75 747.993 563.75C749.993 567.25 751.743 570.75 753.243 574.25C754.243 576 755.243 577.75 756.243 579.5C757.243 581 758.243 582.625 759.243 584.375C760.243 585.625 761.243 586.75 762.243 587.75C763.243 588.75 764.243 589.875 765.243 591.125C766.493 592.375 768.118 592.75 770.118 592.25C771.368 591.75 772.243 591.25 772.743 590.75C773.993 590 775.118 589.25 776.118 588.5C777.368 587.75 778.493 586.875 779.493 585.875C782.243 583.125 784.743 580.375 786.993 577.625C789.493 574.875 791.618 571.875 793.368 568.625C794.868 565.875 796.368 563 797.868 560C799.368 557 800.743 554 801.993 551C803.493 547.5 804.868 544 806.118 540.5C807.618 537 808.993 533.375 810.243 529.625C811.243 527.125 811.993 524.625 812.493 522.125C813.243 519.375 813.743 516.75 813.993 514.25C814.493 511.5 814.868 508.75 815.118 506C815.618 503 815.743 500.125 815.493 497.375C815.493 496.625 815.493 495.875 815.493 495.125C815.743 494.375 815.868 493.625 815.868 492.875C816.368 491.125 816.493 489.5 816.243 488C816.243 486.5 816.118 485 815.868 483.5C815.618 479.25 815.243 475.25 814.743 471.5C814.493 467.5 814.243 463.5 813.993 459.5C813.993 457.5 813.868 456.125 813.618 455.375C813.368 453.125 813.118 450.875 812.868 448.625C812.868 446.375 812.618 444.125 812.118 441.875V438.875C812.118 436.375 811.993 434 811.743 431.75C811.743 429.25 811.743 426.75 811.743 424.25C811.743 422.25 811.618 420.5 811.368 419C811.368 417.25 811.368 415.5 811.368 413.75C811.368 411.5 811.743 409.625 812.493 408.125C813.243 406.875 813.493 405.875 813.243 405.125C812.493 403.625 812.868 402.5 814.368 401.75C815.618 400.5 816.868 399.5 818.118 398.75C819.618 398 821.243 397.5 822.993 397.25C823.493 397 823.868 396.875 824.118 396.875C824.618 396.875 824.993 396.75 825.243 396.5C826.743 395.25 828.743 394.875 831.243 395.375C831.743 395.625 832.493 395.75 833.493 395.75C835.743 396.25 837.368 397.125 838.368 398.375C839.118 399.125 840.243 400 841.743 401C843.743 402 845.118 403.25 845.868 404.75C846.618 406.25 847.118 407.875 847.368 409.625C847.868 412.125 848.243 414.5 848.493 416.75C848.993 419 849.118 421.375 848.868 423.875V427.25C848.868 429.75 848.868 432.25 848.868 434.75C849.118 437 849.368 439.375 849.618 441.875C849.868 442.625 849.993 443.5 849.993 444.5C849.993 445.25 849.993 446 849.993 446.75C849.993 448.25 849.993 449.75 849.993 451.25C850.243 452.5 850.493 453.875 850.743 455.375C850.993 455.875 851.118 456.625 851.118 457.625C850.868 460.125 850.868 462.625 851.118 465.125C851.618 467.375 851.993 469.75 852.243 472.25C852.493 474.75 852.618 477.375 852.618 480.125C852.868 482.875 852.993 485.625 852.993 488.375C853.243 488.625 853.243 489 852.993 489.5C852.993 490 852.993 490.5 852.993 491C852.243 493.25 852.118 495.875 852.618 498.875C853.118 502.125 852.993 505.25 852.243 508.25C851.993 510.5 851.743 512.75 851.493 515C851.243 517.25 850.868 519.625 850.368 522.125C849.868 526.125 848.993 530.125 847.743 534.125C846.493 538.125 845.243 542.125 843.993 546.125C843.993 546.625 843.618 547.5 842.868 548.75C841.868 550.5 840.993 552.375 840.243 554.375C839.493 556.125 838.868 558 838.368 560L837.243 562.625C835.993 565.125 834.868 567.625 833.868 570.125C833.118 572.375 832.118 574.75 830.868 577.25C830.118 578.75 829.368 580.25 828.618 581.75C827.868 583.25 826.993 584.625 825.993 585.875C825.743 586.375 825.368 586.875 824.868 587.375C824.368 589.125 823.618 590.75 822.618 592.25C821.618 593.75 820.618 595.25 819.618 596.75C816.868 601 813.618 605 809.868 608.75C806.368 612.5 802.493 616 798.243 619.25L793.743 621.875C790.243 623.625 786.493 625.125 782.493 626.375C778.743 627.625 774.868 628.5 770.868 629C769.618 629.25 768.243 629.25 766.743 629C765.993 629 765.243 629 764.493 629C763.743 629 762.993 629.25 762.243 629.75H759.993ZM1029.59 629.375C1028.84 629.125 1027.96 628.875 1026.96 628.625C1026.21 628.375 1025.46 628.125 1024.71 627.875C1022.71 627.125 1020.71 626.125 1018.71 624.875C1017.71 624.375 1016.96 623.625 1016.46 622.625C1014.71 619.875 1013.09 617.375 1011.59 615.125C1010.09 612.625 1008.46 610.125 1006.71 607.625L1003.34 601.625C1001.59 598.125 999.839 594.75 998.089 591.5C996.339 588 994.589 584.625 992.839 581.375C992.339 580.125 991.714 579.125 990.964 578.375C990.464 577.375 989.964 576.375 989.464 575.375C987.714 572.625 986.089 569.875 984.589 567.125C983.089 564.125 981.589 561.25 980.089 558.5L970.714 540.125C968.214 535.125 965.714 530.25 963.214 525.5C960.714 520.5 958.214 515.5 955.714 510.5C955.214 510 954.714 509.25 954.214 508.25C953.214 505.5 951.964 502.875 950.464 500.375C949.214 497.875 947.964 495.375 946.714 492.875C945.714 491.125 944.839 489.375 944.089 487.625C943.339 485.625 942.464 483.75 941.464 482L937.339 474.5C936.839 474.5 936.464 474.375 936.214 474.125C936.214 474.125 936.089 474.25 935.839 474.5C935.839 474.5 935.839 474.625 935.839 474.875C935.589 478.125 935.339 481.5 935.089 485C934.839 488.5 934.839 492 935.089 495.5C935.589 497 935.589 498.625 935.089 500.375C934.589 504.875 934.714 508.875 935.464 512.375C935.714 513.375 935.714 514.375 935.464 515.375C935.464 516.375 935.339 517.5 935.089 518.75C934.839 520.5 934.714 522.125 934.714 523.625C934.714 525.125 934.589 526.75 934.339 528.5C934.839 529.5 935.089 530.625 935.089 531.875C935.089 532.875 934.964 533.875 934.714 534.875C933.964 537.375 933.964 540 934.714 542.75C935.214 543.5 935.214 544.25 934.714 545C933.714 547.25 933.464 550 933.964 553.25C934.714 557.5 934.464 562.125 933.214 567.125C932.964 567.625 932.839 568.5 932.839 569.75C932.589 570.75 932.839 571.625 933.589 572.375C934.589 572.875 934.839 573.5 934.339 574.25C934.089 577.5 934.089 580.875 934.339 584.375C934.339 584.375 934.339 584.5 934.339 584.75C934.339 584.75 934.214 584.75 933.964 584.75C933.714 584.75 933.589 584.625 933.589 584.375C933.339 584.125 933.214 583.875 933.214 583.625C932.714 583.125 932.464 583.25 932.464 584C932.464 585.25 932.589 586 932.839 586.25C933.339 587.5 933.589 588.75 933.589 590C933.589 591.25 933.589 592.5 933.589 593.75V605.375C933.589 606.125 933.464 606.875 933.214 607.625C933.214 608.375 932.839 609 932.089 609.5C931.089 609.75 930.589 610.625 930.589 612.125C930.339 614.875 929.339 617.25 927.589 619.25C926.089 621.25 924.339 623 922.339 624.5C921.339 625.25 920.089 625.75 918.589 626C917.339 626 916.089 625.875 914.839 625.625L908.089 623.375C907.589 623.375 907.089 623 906.589 622.25C905.839 621.5 905.089 620.75 904.339 620C903.589 619 902.714 618.125 901.714 617.375C900.464 616.625 899.589 615.25 899.089 613.25C898.839 612 898.464 610.625 897.964 609.125C897.464 607.625 897.214 606.125 897.214 604.625C897.214 602.875 897.214 601.25 897.214 599.75C897.464 598.25 897.589 596.625 897.589 594.875C897.839 593.625 897.964 592.5 897.964 591.5C897.964 590.25 898.089 589 898.339 587.75V450.5C898.339 449.25 898.339 448 898.339 446.75C898.589 445.5 898.839 444.375 899.089 443.375C899.089 442.125 899.089 440.875 899.089 439.625C899.339 438.375 899.464 437.125 899.464 435.875C899.464 434.375 899.464 432.875 899.464 431.375C899.714 429.875 899.964 428.5 900.214 427.25C900.464 426.25 900.589 425.375 900.589 424.625C900.589 423.875 900.589 423 900.589 422V410.375C900.589 408.625 900.714 407.125 900.964 405.875C901.464 404.375 901.839 402.875 902.089 401.375L903.214 399.5C903.964 398.75 904.589 397.625 905.089 396.125C905.589 394.625 906.339 393.875 907.339 393.875C908.089 393.375 908.839 393 909.589 392.75C910.339 392.25 910.839 391.5 911.089 390.5L911.464 390.125C911.714 390.125 911.964 390.125 912.214 390.125C912.464 389.875 912.714 389.75 912.964 389.75C913.964 389.75 914.714 389.5 915.214 389C915.964 388.5 916.839 388.375 917.839 388.625C918.839 388.875 919.839 389 920.839 389C921.839 389 922.839 389.125 923.839 389.375C929.339 390.375 933.214 393.625 935.464 399.125L937.714 406.625C937.964 409.125 939.089 411.5 941.089 413.75C942.589 415.5 944.089 417.375 945.589 419.375C947.089 421.375 948.714 423.375 950.464 425.375C956.964 433.625 962.964 442.875 968.464 453.125C968.964 454.125 969.464 455.125 969.964 456.125C970.464 457.125 970.964 458.125 971.464 459.125L990.964 498.5C992.464 501.25 993.839 504.125 995.089 507.125C996.589 509.875 998.214 512.625 999.964 515.375C1000.46 516.375 1000.96 517.375 1001.46 518.375C1001.96 519.125 1002.34 520 1002.59 521C1003.84 524 1005.34 527 1007.09 530C1007.09 530 1007.09 530.125 1007.09 530.375C1007.34 530.375 1007.46 530.25 1007.46 530C1007.71 530 1007.84 530 1007.84 530C1008.09 529.75 1008.21 529.625 1008.21 529.625L1009.34 516.5V512.75C1009.59 511.5 1009.71 510.25 1009.71 509C1009.96 507.5 1010.21 506.125 1010.46 504.875C1010.71 504.125 1010.71 503.25 1010.46 502.25C1010.46 501.25 1010.59 500.25 1010.84 499.25C1010.84 497.75 1010.84 496.25 1010.84 494.75C1011.09 493 1011.34 491.375 1011.59 489.875C1011.84 489.125 1011.96 488.375 1011.96 487.625C1011.96 486.625 1011.96 485.75 1011.96 485V474.875H1011.59V464.75C1011.59 463.5 1011.59 462.25 1011.59 461C1011.59 459.75 1011.34 458.5 1010.84 457.25C1010.59 456.5 1010.46 455.375 1010.46 453.875L1010.84 451.25C1010.84 450.5 1010.71 449.875 1010.46 449.375C1010.46 448.625 1010.46 447.875 1010.46 447.125C1010.71 446.125 1010.59 445.125 1010.09 444.125C1009.59 443.125 1009.34 442.125 1009.34 441.125C1009.59 440.125 1009.71 439.125 1009.71 438.125C1009.71 437.125 1009.71 436.125 1009.71 435.125C1009.71 434.125 1009.21 433.625 1008.21 433.625C1007.96 433.625 1007.84 433.375 1007.84 432.875C1007.59 432.125 1007.59 431.5 1007.84 431C1008.34 429.75 1008.59 428.375 1008.59 426.875C1008.59 425.375 1008.59 423.875 1008.59 422.375V411.5C1008.34 410 1008.46 408.5 1008.96 407C1009.46 405.5 1010.09 404.125 1010.84 402.875L1012.34 400.625C1013.59 399.375 1014.96 398.125 1016.46 396.875C1017.96 395.625 1019.46 394.375 1020.96 393.125C1020.96 393.125 1021.46 392.875 1022.46 392.375C1023.71 392.125 1024.84 391.875 1025.84 391.625C1027.09 391.375 1028.34 391.375 1029.59 391.625C1030.59 391.625 1031.34 391.75 1031.84 392C1032.84 392.5 1033.84 393.125 1034.84 393.875C1035.84 394.375 1036.84 395 1037.84 395.75C1038.34 396 1038.59 396.25 1038.59 396.5C1038.84 396.75 1039.09 397 1039.34 397.25C1039.84 397.75 1040.21 398.375 1040.46 399.125C1040.96 399.625 1041.34 400.125 1041.59 400.625C1042.84 401.625 1043.59 402.875 1043.84 404.375C1044.34 405.625 1044.71 406.875 1044.96 408.125V423.875C1044.96 425.625 1044.96 427.375 1044.96 429.125C1045.21 430.625 1045.46 432.25 1045.71 434C1045.96 435 1046.09 436 1046.09 437C1046.09 437.75 1046.09 438.625 1046.09 439.625C1046.09 441.625 1046.09 443.75 1046.09 446C1046.34 448 1046.46 450 1046.46 452V454.625C1046.46 456.375 1046.34 458.125 1046.09 459.875C1046.09 461.375 1046.09 463 1046.09 464.75V481.25C1046.09 483.75 1045.96 486.375 1045.71 489.125C1045.71 491.625 1045.84 494.25 1046.09 497C1046.09 498 1045.96 498.75 1045.71 499.25C1045.46 501.75 1045.34 504.25 1045.34 506.75C1045.34 509 1045.21 511.375 1044.96 513.875C1044.96 514.875 1044.96 516 1044.96 517.25C1044.96 518.5 1044.84 519.75 1044.59 521C1044.34 522 1044.21 523 1044.21 524C1044.46 525 1044.59 526 1044.59 527C1045.09 529.25 1045.21 531.5 1044.96 533.75C1044.96 536 1044.84 538.25 1044.59 540.5C1044.34 544.5 1044.09 548.625 1043.84 552.875C1043.84 556.875 1044.09 561 1044.59 565.25C1044.59 566.25 1044.59 567.375 1044.59 568.625C1044.84 569.875 1044.96 571.125 1044.96 572.375C1044.71 576.125 1044.84 579.75 1045.34 583.25C1046.09 586.75 1046.84 590.25 1047.59 593.75C1048.09 596.25 1048.59 598.75 1049.09 601.25C1049.59 603.5 1049.96 606 1050.21 608.75C1050.21 609.75 1050.09 610.375 1049.84 610.625C1049.59 611.125 1049.34 611.75 1049.09 612.5C1048.84 613 1048.71 613.5 1048.71 614C1048.46 616 1047.71 617.875 1046.46 619.625C1045.46 621.375 1044.34 623.125 1043.09 624.875C1039.84 629.125 1035.34 630.625 1029.59 629.375Z" fill="#929292"/>
<defs>
<linearGradient id="paint0_linear_300_67" x1="760.779" y1="1263.22" x2="757.974" y2="117.91" gradientUnits="userSpaceOnUse">
<stop stop-opacity="0.03"/>
<stop stop-opacity="0.4"/>
<stop offset="0.532099" stop-color="#F6F8FF" stop-opacity="0.953459"/>
<stop offset="1" stop-color="white"/>
</linearGradient>
</defs>
</svg>
