<svg width="1504" height="1056" viewBox="0 0 1504 1056" fill="none" xmlns="http://www.w3.org/2000/svg">
<rect width="1504" height="1056" fill="black"/>
<rect x="108" y="123" width="1288.73" height="809" rx="36" fill="url(#paint0_radial_300_71)" stroke="#262626" stroke-width="20"/>
<path d="M518.625 657C516.375 658 514.25 657.875 512.25 656.625C511.5 656.125 510.75 655.5 510 654.75C509.25 654.25 508.625 653.5 508.125 652.5C506.125 649.5 503.625 647 500.625 645C499.125 643.75 497.875 642.375 496.875 640.875C495.875 639.625 495 638.125 494.25 636.375L493.125 633C492.125 631 491.625 628.75 491.625 626.25C491.875 623 492 619.75 492 616.5C492 613.25 491.75 610 491.25 606.75C491 605.5 490.875 604.375 490.875 603.375C490.875 602.125 490.875 600.875 490.875 599.625C490.625 597.625 490.5 595.5 490.5 593.25C490.5 591 490.5 588.875 490.5 586.875C490.5 585.125 490.5 583.5 490.5 582C490.5 580.5 490.375 578.875 490.125 577.125C489.875 575.625 489.75 574.125 489.75 572.625C489.75 571.125 489.75 569.625 489.75 568.125V505.125C489.75 503.375 489.625 502.125 489.375 501.375C488.875 499.375 488.625 497.5 488.625 495.75C488.625 494 488.375 492.25 487.875 490.5C487.875 489.25 488 488.375 488.25 487.875C489.25 484.625 489.75 480.625 489.75 475.875C489.5 471.375 489.375 467 489.375 462.75C489.625 458.25 489.625 453.75 489.375 449.25V445.875L488.625 445.125C488.375 444.625 487.875 444.75 487.125 445.5L485.625 446.625C485.375 447.125 485.125 447.625 484.875 448.125C484.625 448.375 484.25 448.75 483.75 449.25C482.25 451.25 480.125 452.5 477.375 453C475.625 453.5 474.25 453.25 473.25 452.25C472.5 451.75 471.75 451.25 471 450.75C470.25 450 469.625 449.375 469.125 448.875C467.875 447.625 466.5 446.375 465 445.125C463.75 443.625 462.375 442.25 460.875 441C457.625 438.5 455.375 435 454.125 430.5L453 426.375C452.75 423.875 453 421.375 453.75 418.875C454.25 417.375 454.75 415.875 455.25 414.375C455.75 412.875 456.25 411.5 456.75 410.25C457.25 408.25 458.125 406.75 459.375 405.75C460.625 404.75 462 403.875 463.5 403.125C464 403.125 464.5 403.125 465 403.125C465.5 402.875 465.875 402.75 466.125 402.75C466.875 402.25 467.25 401.875 467.25 401.625C467.75 400.375 468.5 400 469.5 400.5C470 400.5 470.25 400.125 470.25 399.375C470.5 399.125 470.875 399 471.375 399C471.875 399.25 472.25 399.625 472.5 400.125C473 400.375 473.5 400.625 474 400.875C474.25 401.125 474.875 401.25 475.875 401.25C476.875 400.75 477.875 400.5 478.875 400.5C479.875 400.5 480.875 400.5 481.875 400.5C483.125 400.5 484.375 400.375 485.625 400.125C487.125 399.625 488.5 399.25 489.75 399C490.5 398.5 491.125 397.875 491.625 397.125L492.75 392.25L493.875 386.625C494.125 385.375 494.5 384.25 495 383.25C495.5 382.25 496 381.25 496.5 380.25L498 378C500.5 373.5 504.5 370.625 510 369.375C510.5 369.125 510.875 369 511.125 369C511.375 369 511.625 368.875 511.875 368.625C512.625 368.375 513.375 368.25 514.125 368.25C514.875 368.25 515.625 368.25 516.375 368.25H519.375C524.125 368.5 527.75 370.625 530.25 374.625C530.75 375.375 531.25 376.25 531.75 377.25C532.25 378.25 532.625 379.25 532.875 380.25C533.625 381.75 534.875 382.375 536.625 382.125C536.875 381.875 537.25 381.75 537.75 381.75C540.5 381 543.25 380.25 546 379.5C548.75 378.75 551.5 377.875 554.25 376.875C557.5 375.625 560.75 374.625 564 373.875C567.25 372.875 570.5 371.875 573.75 370.875C576.5 369.875 579.25 369 582 368.25C585 367.5 587.875 366.75 590.625 366L599.625 363.75C603.875 362.5 608.25 361.375 612.75 360.375C617.25 359.375 621.625 358.375 625.875 357.375C628.125 356.875 630.375 356.125 632.625 355.125C634.375 353.875 636.25 353.25 638.25 353.25C640.25 353 642.125 352.875 643.875 352.875H651.375C655.125 353.125 658.125 354.625 660.375 357.375C663.125 359.875 664.625 363.25 664.875 367.5V370.5C664.875 373.75 663.75 376.5 661.5 378.75C659.25 381 657 382.875 654.75 384.375C654.5 384.625 654.125 384.75 653.625 384.75C653.375 384.75 653 384.875 652.5 385.125C650.25 385.125 647.875 385.75 645.375 387C643.625 387.75 641.75 387.875 639.75 387.375C638.5 386.875 637.25 386.75 636 387C634.75 387 633.5 387.125 632.25 387.375C631.25 387.625 630.25 387.875 629.25 388.125C628.25 388.375 627.25 388.625 626.25 388.875C625.25 389.125 624.25 389.375 623.25 389.625C622.25 389.875 621.125 390.125 619.875 390.375C613.875 391.125 608.375 393.125 603.375 396.375C602.875 396.875 602.125 397.125 601.125 397.125C599.625 397.125 598.5 397.375 597.75 397.875C596.75 398.125 595.75 398.5 594.75 399C594 399.5 593.125 400 592.125 400.5C591.125 401 590 401.5 588.75 402C587.5 402.5 586.25 403 585 403.5C583.5 403.75 582 404.125 580.5 404.625C579 405.125 577.5 405.625 576 406.125C575.25 406.375 574.5 406.625 573.75 406.875C573.25 407.125 572.75 407.375 572.25 407.625C569.75 408.375 567.25 409.375 564.75 410.625C562.5 411.875 560.25 413.25 558 414.75L556.125 415.875C555.125 416.125 554 416.5 552.75 417C551.5 417.5 550.25 418 549 418.5C547.75 418.75 546.5 419.125 545.25 419.625C544 420.125 542.75 420.75 541.5 421.5C541.25 421.75 541 421.875 540.75 421.875C539 422.125 537.5 422.875 536.25 424.125C535.25 425.125 534.125 426.25 532.875 427.5C532.375 428 532.125 428.625 532.125 429.375V459.75C532.125 460.75 532 461.75 531.75 462.75C531.75 463.75 531.625 464.875 531.375 466.125C531.375 467.625 531.25 468.625 531 469.125C531 471.875 532.25 472.875 534.75 472.125C538.25 471.125 541.75 470.125 545.25 469.125C549 468.125 552.5 467.125 555.75 466.125C559.25 464.875 562.5 463.75 565.5 462.75C568.75 461.75 572 460.75 575.25 459.75C576.5 459.5 577.625 459.25 578.625 459C579.625 458.5 580.625 458.125 581.625 457.875C585.625 456.375 589.625 454.875 593.625 453.375C597.875 451.875 602 450.625 606 449.625C608.75 449.125 611.375 448.5 613.875 447.75C616.375 446.75 618.875 445.875 621.375 445.125C623.625 444.375 625.875 443.75 628.125 443.25C630.375 442.75 632.5 442.25 634.5 441.75C636 441.5 637.5 441.5 639 441.75C640.5 441.75 641.875 442.125 643.125 442.875C643.625 443.125 644.125 443.375 644.625 443.625C645.375 443.625 646 443.75 646.5 444C647.75 444 648.75 444.5 649.5 445.5C650 445.75 650.375 446 650.625 446.25C651.125 446.5 651.625 446.875 652.125 447.375C652.125 447.375 652.5 447.75 653.25 448.5C653.25 448.75 653.25 449 653.25 449.25C653.5 449.25 653.625 449.5 653.625 450C655.625 453 656.625 455 656.625 456C656.875 456.75 657.125 458.375 657.375 460.875C657.375 462.375 657 463.375 656.25 463.875L655.125 465.375C654.125 468.125 652.125 470.125 649.125 471.375C648.125 471.875 647.125 472.5 646.125 473.25C645.375 473.75 644.375 474.25 643.125 474.75L641.25 475.875C640.25 476.875 639.125 477.375 637.875 477.375C635.125 477.875 632.375 478.625 629.625 479.625C627.125 480.625 624.5 481.5 621.75 482.25C620.75 482.5 619.75 483.125 618.75 484.125C617 485.625 614.875 486.75 612.375 487.5C611.375 487.75 610.375 488.125 609.375 488.625C608.625 488.875 607.625 489.125 606.375 489.375C602.125 490.625 597.875 492.125 593.625 493.875C589.625 495.625 585.5 497.375 581.25 499.125C579.5 499.875 577.625 500.625 575.625 501.375C573.875 502.125 572 502.75 570 503.25C568.75 503.75 567.375 504.375 565.875 505.125C564.375 505.625 563 506.375 561.75 507.375C560.75 507.875 559.75 508.375 558.75 508.875C557.75 509.125 556.625 509.5 555.375 510C551.625 511.25 547.875 512.5 544.125 513.75C540.375 515 536.5 516.25 532.5 517.5C531.75 517.5 531.25 517.625 531 517.875C529.75 518.375 529.125 519.125 529.125 520.125C528.875 521.625 528.625 523.125 528.375 524.625C528.375 525.875 528.375 527.125 528.375 528.375V530.625C528.875 531.625 529.125 532.875 529.125 534.375C529.125 535.625 529.125 536.875 529.125 538.125C529.125 538.625 528.875 539.375 528.375 540.375C527.375 541.375 526.875 542.75 526.875 544.5C526.625 546 526.5 547.5 526.5 549C526.5 550.5 526.25 552 525.75 553.5C525.5 555.25 525.375 556.875 525.375 558.375C525.625 559.875 526.125 561.375 526.875 562.875C527.625 564.375 528 566 528 567.75C527.75 572 528.375 576.75 529.875 582C530.125 582.75 530.25 584 530.25 585.75C529.5 588 529.375 590.875 529.875 594.375C529.875 595.375 529.875 596.625 529.875 598.125C529.875 599.375 529.75 600.625 529.5 601.875C529 602.625 529 604 529.5 606C529.5 606.5 529.5 607.125 529.5 607.875C529.75 608.375 529.875 608.875 529.875 609.375C530.125 612.625 530.375 615.875 530.625 619.125C531.125 622.375 531.5 625.625 531.75 628.875C532 630.375 532 631.875 531.75 633.375C531.5 634.625 531.125 635.875 530.625 637.125C529.875 640.625 528.625 643.5 526.875 645.75C525.875 647 525 648.25 524.25 649.5C523.5 651 522.75 652.375 522 653.625C521.75 654.375 521.25 655 520.5 655.5C519.75 656 519.125 656.5 518.625 657ZM759.993 642.75C759.743 642.5 759.368 642.375 758.868 642.375C756.368 640.875 753.868 639.5 751.368 638.25C749.118 636.75 746.993 635.125 744.993 633.375C743.993 632.875 743.368 632.375 743.118 631.875C740.868 630.625 738.868 629.125 737.118 627.375C735.368 625.375 733.743 623.25 732.243 621C731.743 620.5 731.243 619.875 730.743 619.125C730.243 618.375 729.618 617.625 728.868 616.875C726.368 614.375 724.368 611.375 722.868 607.875C722.618 607.125 722.243 606.375 721.743 605.625C721.243 604.875 720.743 604.125 720.243 603.375C718.743 601.375 717.618 599.5 716.868 597.75C716.368 595.75 715.618 593.875 714.618 592.125C713.618 590.125 712.618 588.25 711.618 586.5C711.368 585.5 710.993 584.5 710.493 583.5C709.993 582.5 709.618 581.5 709.368 580.5C709.368 579.25 708.993 577.875 708.243 576.375C707.243 573.625 706.243 570.875 705.243 568.125C704.493 565.125 703.743 562.125 702.993 559.125C702.493 558.125 702.243 557.375 702.243 556.875C700.743 553.625 699.618 550.25 698.868 546.75C698.118 543.25 697.368 539.875 696.618 536.625L694.368 519.75C694.118 519.25 693.993 518.625 693.993 517.875C693.993 517.125 693.993 516.5 693.993 516C693.993 514.5 693.993 513.125 693.993 511.875C693.993 510.375 693.743 508.875 693.243 507.375C692.743 504.125 692.868 501.125 693.618 498.375C693.618 497.375 693.618 496.5 693.618 495.75C693.868 494.75 693.993 493.75 693.993 492.75C693.993 491.5 693.993 490.25 693.993 489C694.243 487.5 694.493 486.25 694.743 485.25C694.993 484.5 695.118 483.5 695.118 482.25C695.618 480 695.868 477.875 695.868 475.875C696.118 473.625 696.368 471.5 696.618 469.5C697.368 466 697.743 462.625 697.743 459.375C697.743 458.375 697.743 457.5 697.743 456.75C697.993 455.75 698.243 454.75 698.493 453.75C698.493 451.5 698.368 449.875 698.118 448.875C697.368 447.875 697.243 446.5 697.743 444.75C698.243 443.75 698.493 443 698.493 442.5C698.743 442 698.868 441.5 698.868 441C698.868 440.25 699.243 439.75 699.993 439.5H702.618C703.618 439.5 704.243 439.125 704.493 438.375C704.743 437.375 705.618 436.625 707.118 436.125C708.368 435.625 709.493 435.25 710.493 435C711.493 434.5 712.493 433.875 713.493 433.125C714.243 432.625 715.118 432.375 716.118 432.375C717.118 432.375 718.118 432.5 719.118 432.75L725.868 435C726.118 435.25 726.243 435.375 726.243 435.375C726.493 435.375 726.743 435.5 726.993 435.75C728.993 437.75 730.618 440 731.868 442.5C733.368 445 734.243 447.75 734.493 450.75C734.493 451.75 734.493 452.75 734.493 453.75C734.493 454.5 734.243 455.375 733.743 456.375C733.493 457.875 733.243 459.375 732.993 460.875C732.743 462.375 732.493 464 732.243 465.75C731.743 468.25 731.368 470.75 731.118 473.25C731.118 475.5 731.118 477.875 731.118 480.375C730.868 481.375 730.743 482.375 730.743 483.375C730.743 484.125 730.618 485 730.368 486C730.118 489 729.993 492 729.993 495C729.993 498 730.243 500.875 730.743 503.625C730.743 503.875 730.743 504.25 730.743 504.75C730.993 505.25 730.993 505.75 730.743 506.25C730.743 508.75 730.993 511.375 731.493 514.125C731.993 516.875 732.368 519.625 732.618 522.375C732.868 524.875 733.118 527.25 733.368 529.5C733.618 531.75 733.993 534 734.493 536.25C734.993 537.25 735.243 538.25 735.243 539.25C735.493 540.25 735.743 541.25 735.993 542.25C736.993 547 738.118 551.625 739.368 556.125C740.618 560.625 742.243 565.125 744.243 569.625C745.493 572.375 746.743 574.75 747.993 576.75C749.993 580.25 751.743 583.75 753.243 587.25C754.243 589 755.243 590.75 756.243 592.5C757.243 594 758.243 595.625 759.243 597.375C760.243 598.625 761.243 599.75 762.243 600.75C763.243 601.75 764.243 602.875 765.243 604.125C766.493 605.375 768.118 605.75 770.118 605.25C771.368 604.75 772.243 604.25 772.743 603.75C773.993 603 775.118 602.25 776.118 601.5C777.368 600.75 778.493 599.875 779.493 598.875C782.243 596.125 784.743 593.375 786.993 590.625C789.493 587.875 791.618 584.875 793.368 581.625C794.868 578.875 796.368 576 797.868 573C799.368 570 800.743 567 801.993 564C803.493 560.5 804.868 557 806.118 553.5C807.618 550 808.993 546.375 810.243 542.625C811.243 540.125 811.993 537.625 812.493 535.125C813.243 532.375 813.743 529.75 813.993 527.25C814.493 524.5 814.868 521.75 815.118 519C815.618 516 815.743 513.125 815.493 510.375C815.493 509.625 815.493 508.875 815.493 508.125C815.743 507.375 815.868 506.625 815.868 505.875C816.368 504.125 816.493 502.5 816.243 501C816.243 499.5 816.118 498 815.868 496.5C815.618 492.25 815.243 488.25 814.743 484.5C814.493 480.5 814.243 476.5 813.993 472.5C813.993 470.5 813.868 469.125 813.618 468.375C813.368 466.125 813.118 463.875 812.868 461.625C812.868 459.375 812.618 457.125 812.118 454.875V451.875C812.118 449.375 811.993 447 811.743 444.75C811.743 442.25 811.743 439.75 811.743 437.25C811.743 435.25 811.618 433.5 811.368 432C811.368 430.25 811.368 428.5 811.368 426.75C811.368 424.5 811.743 422.625 812.493 421.125C813.243 419.875 813.493 418.875 813.243 418.125C812.493 416.625 812.868 415.5 814.368 414.75C815.618 413.5 816.868 412.5 818.118 411.75C819.618 411 821.243 410.5 822.993 410.25C823.493 410 823.868 409.875 824.118 409.875C824.618 409.875 824.993 409.75 825.243 409.5C826.743 408.25 828.743 407.875 831.243 408.375C831.743 408.625 832.493 408.75 833.493 408.75C835.743 409.25 837.368 410.125 838.368 411.375C839.118 412.125 840.243 413 841.743 414C843.743 415 845.118 416.25 845.868 417.75C846.618 419.25 847.118 420.875 847.368 422.625C847.868 425.125 848.243 427.5 848.493 429.75C848.993 432 849.118 434.375 848.868 436.875V440.25C848.868 442.75 848.868 445.25 848.868 447.75C849.118 450 849.368 452.375 849.618 454.875C849.868 455.625 849.993 456.5 849.993 457.5C849.993 458.25 849.993 459 849.993 459.75C849.993 461.25 849.993 462.75 849.993 464.25C850.243 465.5 850.493 466.875 850.743 468.375C850.993 468.875 851.118 469.625 851.118 470.625C850.868 473.125 850.868 475.625 851.118 478.125C851.618 480.375 851.993 482.75 852.243 485.25C852.493 487.75 852.618 490.375 852.618 493.125C852.868 495.875 852.993 498.625 852.993 501.375C853.243 501.625 853.243 502 852.993 502.5C852.993 503 852.993 503.5 852.993 504C852.243 506.25 852.118 508.875 852.618 511.875C853.118 515.125 852.993 518.25 852.243 521.25C851.993 523.5 851.743 525.75 851.493 528C851.243 530.25 850.868 532.625 850.368 535.125C849.868 539.125 848.993 543.125 847.743 547.125C846.493 551.125 845.243 555.125 843.993 559.125C843.993 559.625 843.618 560.5 842.868 561.75C841.868 563.5 840.993 565.375 840.243 567.375C839.493 569.125 838.868 571 838.368 573L837.243 575.625C835.993 578.125 834.868 580.625 833.868 583.125C833.118 585.375 832.118 587.75 830.868 590.25C830.118 591.75 829.368 593.25 828.618 594.75C827.868 596.25 826.993 597.625 825.993 598.875C825.743 599.375 825.368 599.875 824.868 600.375C824.368 602.125 823.618 603.75 822.618 605.25C821.618 606.75 820.618 608.25 819.618 609.75C816.868 614 813.618 618 809.868 621.75C806.368 625.5 802.493 629 798.243 632.25L793.743 634.875C790.243 636.625 786.493 638.125 782.493 639.375C778.743 640.625 774.868 641.5 770.868 642C769.618 642.25 768.243 642.25 766.743 642C765.993 642 765.243 642 764.493 642C763.743 642 762.993 642.25 762.243 642.75H759.993ZM1029.59 642.375C1028.84 642.125 1027.96 641.875 1026.96 641.625C1026.21 641.375 1025.46 641.125 1024.71 640.875C1022.71 640.125 1020.71 639.125 1018.71 637.875C1017.71 637.375 1016.96 636.625 1016.46 635.625C1014.71 632.875 1013.09 630.375 1011.59 628.125C1010.09 625.625 1008.46 623.125 1006.71 620.625L1003.34 614.625C1001.59 611.125 999.839 607.75 998.089 604.5C996.339 601 994.589 597.625 992.839 594.375C992.339 593.125 991.714 592.125 990.964 591.375C990.464 590.375 989.964 589.375 989.464 588.375C987.714 585.625 986.089 582.875 984.589 580.125C983.089 577.125 981.589 574.25 980.089 571.5L970.714 553.125C968.214 548.125 965.714 543.25 963.214 538.5C960.714 533.5 958.214 528.5 955.714 523.5C955.214 523 954.714 522.25 954.214 521.25C953.214 518.5 951.964 515.875 950.464 513.375C949.214 510.875 947.964 508.375 946.714 505.875C945.714 504.125 944.839 502.375 944.089 500.625C943.339 498.625 942.464 496.75 941.464 495L937.339 487.5C936.839 487.5 936.464 487.375 936.214 487.125C936.214 487.125 936.089 487.25 935.839 487.5C935.839 487.5 935.839 487.625 935.839 487.875C935.589 491.125 935.339 494.5 935.089 498C934.839 501.5 934.839 505 935.089 508.5C935.589 510 935.589 511.625 935.089 513.375C934.589 517.875 934.714 521.875 935.464 525.375C935.714 526.375 935.714 527.375 935.464 528.375C935.464 529.375 935.339 530.5 935.089 531.75C934.839 533.5 934.714 535.125 934.714 536.625C934.714 538.125 934.589 539.75 934.339 541.5C934.839 542.5 935.089 543.625 935.089 544.875C935.089 545.875 934.964 546.875 934.714 547.875C933.964 550.375 933.964 553 934.714 555.75C935.214 556.5 935.214 557.25 934.714 558C933.714 560.25 933.464 563 933.964 566.25C934.714 570.5 934.464 575.125 933.214 580.125C932.964 580.625 932.839 581.5 932.839 582.75C932.589 583.75 932.839 584.625 933.589 585.375C934.589 585.875 934.839 586.5 934.339 587.25C934.089 590.5 934.089 593.875 934.339 597.375C934.339 597.375 934.339 597.5 934.339 597.75C934.339 597.75 934.214 597.75 933.964 597.75C933.714 597.75 933.589 597.625 933.589 597.375C933.339 597.125 933.214 596.875 933.214 596.625C932.714 596.125 932.464 596.25 932.464 597C932.464 598.25 932.589 599 932.839 599.25C933.339 600.5 933.589 601.75 933.589 603C933.589 604.25 933.589 605.5 933.589 606.75V618.375C933.589 619.125 933.464 619.875 933.214 620.625C933.214 621.375 932.839 622 932.089 622.5C931.089 622.75 930.589 623.625 930.589 625.125C930.339 627.875 929.339 630.25 927.589 632.25C926.089 634.25 924.339 636 922.339 637.5C921.339 638.25 920.089 638.75 918.589 639C917.339 639 916.089 638.875 914.839 638.625L908.089 636.375C907.589 636.375 907.089 636 906.589 635.25C905.839 634.5 905.089 633.75 904.339 633C903.589 632 902.714 631.125 901.714 630.375C900.464 629.625 899.589 628.25 899.089 626.25C898.839 625 898.464 623.625 897.964 622.125C897.464 620.625 897.214 619.125 897.214 617.625C897.214 615.875 897.214 614.25 897.214 612.75C897.464 611.25 897.589 609.625 897.589 607.875C897.839 606.625 897.964 605.5 897.964 604.5C897.964 603.25 898.089 602 898.339 600.75V463.5C898.339 462.25 898.339 461 898.339 459.75C898.589 458.5 898.839 457.375 899.089 456.375C899.089 455.125 899.089 453.875 899.089 452.625C899.339 451.375 899.464 450.125 899.464 448.875C899.464 447.375 899.464 445.875 899.464 444.375C899.714 442.875 899.964 441.5 900.214 440.25C900.464 439.25 900.589 438.375 900.589 437.625C900.589 436.875 900.589 436 900.589 435V423.375C900.589 421.625 900.714 420.125 900.964 418.875C901.464 417.375 901.839 415.875 902.089 414.375L903.214 412.5C903.964 411.75 904.589 410.625 905.089 409.125C905.589 407.625 906.339 406.875 907.339 406.875C908.089 406.375 908.839 406 909.589 405.75C910.339 405.25 910.839 404.5 911.089 403.5L911.464 403.125C911.714 403.125 911.964 403.125 912.214 403.125C912.464 402.875 912.714 402.75 912.964 402.75C913.964 402.75 914.714 402.5 915.214 402C915.964 401.5 916.839 401.375 917.839 401.625C918.839 401.875 919.839 402 920.839 402C921.839 402 922.839 402.125 923.839 402.375C929.339 403.375 933.214 406.625 935.464 412.125L937.714 419.625C937.964 422.125 939.089 424.5 941.089 426.75C942.589 428.5 944.089 430.375 945.589 432.375C947.089 434.375 948.714 436.375 950.464 438.375C956.964 446.625 962.964 455.875 968.464 466.125C968.964 467.125 969.464 468.125 969.964 469.125C970.464 470.125 970.964 471.125 971.464 472.125L990.964 511.5C992.464 514.25 993.839 517.125 995.089 520.125C996.589 522.875 998.214 525.625 999.964 528.375C1000.46 529.375 1000.96 530.375 1001.46 531.375C1001.96 532.125 1002.34 533 1002.59 534C1003.84 537 1005.34 540 1007.09 543C1007.09 543 1007.09 543.125 1007.09 543.375C1007.34 543.375 1007.46 543.25 1007.46 543C1007.71 543 1007.84 543 1007.84 543C1008.09 542.75 1008.21 542.625 1008.21 542.625L1009.34 529.5V525.75C1009.59 524.5 1009.71 523.25 1009.71 522C1009.96 520.5 1010.21 519.125 1010.46 517.875C1010.71 517.125 1010.71 516.25 1010.46 515.25C1010.46 514.25 1010.59 513.25 1010.84 512.25C1010.84 510.75 1010.84 509.25 1010.84 507.75C1011.09 506 1011.34 504.375 1011.59 502.875C1011.84 502.125 1011.96 501.375 1011.96 500.625C1011.96 499.625 1011.96 498.75 1011.96 498V487.875H1011.59V477.75C1011.59 476.5 1011.59 475.25 1011.59 474C1011.59 472.75 1011.34 471.5 1010.84 470.25C1010.59 469.5 1010.46 468.375 1010.46 466.875L1010.84 464.25C1010.84 463.5 1010.71 462.875 1010.46 462.375C1010.46 461.625 1010.46 460.875 1010.46 460.125C1010.71 459.125 1010.59 458.125 1010.09 457.125C1009.59 456.125 1009.34 455.125 1009.34 454.125C1009.59 453.125 1009.71 452.125 1009.71 451.125C1009.71 450.125 1009.71 449.125 1009.71 448.125C1009.71 447.125 1009.21 446.625 1008.21 446.625C1007.96 446.625 1007.84 446.375 1007.84 445.875C1007.59 445.125 1007.59 444.5 1007.84 444C1008.34 442.75 1008.59 441.375 1008.59 439.875C1008.59 438.375 1008.59 436.875 1008.59 435.375V424.5C1008.34 423 1008.46 421.5 1008.96 420C1009.46 418.5 1010.09 417.125 1010.84 415.875L1012.34 413.625C1013.59 412.375 1014.96 411.125 1016.46 409.875C1017.96 408.625 1019.46 407.375 1020.96 406.125C1020.96 406.125 1021.46 405.875 1022.46 405.375C1023.71 405.125 1024.84 404.875 1025.84 404.625C1027.09 404.375 1028.34 404.375 1029.59 404.625C1030.59 404.625 1031.34 404.75 1031.84 405C1032.84 405.5 1033.84 406.125 1034.84 406.875C1035.84 407.375 1036.84 408 1037.84 408.75C1038.34 409 1038.59 409.25 1038.59 409.5C1038.84 409.75 1039.09 410 1039.34 410.25C1039.84 410.75 1040.21 411.375 1040.46 412.125C1040.96 412.625 1041.34 413.125 1041.59 413.625C1042.84 414.625 1043.59 415.875 1043.84 417.375C1044.34 418.625 1044.71 419.875 1044.96 421.125V436.875C1044.96 438.625 1044.96 440.375 1044.96 442.125C1045.21 443.625 1045.46 445.25 1045.71 447C1045.96 448 1046.09 449 1046.09 450C1046.09 450.75 1046.09 451.625 1046.09 452.625C1046.09 454.625 1046.09 456.75 1046.09 459C1046.34 461 1046.46 463 1046.46 465V467.625C1046.46 469.375 1046.34 471.125 1046.09 472.875C1046.09 474.375 1046.09 476 1046.09 477.75V494.25C1046.09 496.75 1045.96 499.375 1045.71 502.125C1045.71 504.625 1045.84 507.25 1046.09 510C1046.09 511 1045.96 511.75 1045.71 512.25C1045.46 514.75 1045.34 517.25 1045.34 519.75C1045.34 522 1045.21 524.375 1044.96 526.875C1044.96 527.875 1044.96 529 1044.96 530.25C1044.96 531.5 1044.84 532.75 1044.59 534C1044.34 535 1044.21 536 1044.21 537C1044.46 538 1044.59 539 1044.59 540C1045.09 542.25 1045.21 544.5 1044.96 546.75C1044.96 549 1044.84 551.25 1044.59 553.5C1044.34 557.5 1044.09 561.625 1043.84 565.875C1043.84 569.875 1044.09 574 1044.59 578.25C1044.59 579.25 1044.59 580.375 1044.59 581.625C1044.84 582.875 1044.96 584.125 1044.96 585.375C1044.71 589.125 1044.84 592.75 1045.34 596.25C1046.09 599.75 1046.84 603.25 1047.59 606.75C1048.09 609.25 1048.59 611.75 1049.09 614.25C1049.59 616.5 1049.96 619 1050.21 621.75C1050.21 622.75 1050.09 623.375 1049.84 623.625C1049.59 624.125 1049.34 624.75 1049.09 625.5C1048.84 626 1048.71 626.5 1048.71 627C1048.46 629 1047.71 630.875 1046.46 632.625C1045.46 634.375 1044.34 636.125 1043.09 637.875C1039.84 642.125 1035.34 643.625 1029.59 642.375Z" fill="#929292"/>
<defs>
<radialGradient id="paint0_radial_300_71" cx="0" cy="0" r="1" gradientUnits="userSpaceOnUse" gradientTransform="translate(759 128.5) rotate(-90) scale(474 932.108)">
<stop stop-color="#3C3C3C"/>
<stop offset="1"/>
</radialGradient>
</defs>
</svg>
