<svg width="1504" height="1056" viewBox="0 0 1504 1056" fill="none" xmlns="http://www.w3.org/2000/svg">
<rect width="1504" height="1056" fill="black"/>
<rect x="108" y="123" width="1288.73" height="809" rx="36" fill="url(#paint0_radial_300_54)" stroke="#262626" stroke-width="20"/>
<path d="M701.341 531.919H715.78H791.967C797.811 531.919 802.41 536.908 801.934 542.732L798.109 589.604C797.767 593.787 794.85 597.312 790.805 598.429L754.742 608.394C752.999 608.875 751.158 608.875 749.416 608.394L713.352 598.429C709.307 597.312 706.39 593.787 706.048 589.605L704.222 567.254C703.798 562.065 699.463 558.069 694.256 558.069H667.934C662.091 558.069 657.492 563.058 657.967 568.882L662.912 629.482C663.253 633.666 666.17 637.191 670.216 638.308L749.416 660.184C751.159 660.665 752.999 660.665 754.741 660.184L833.944 638.308C837.99 637.191 840.908 633.665 841.249 629.482L852.077 496.726C852.552 490.902 847.953 485.913 842.11 485.913H706.804C701.596 485.913 697.26 481.917 696.837 476.726L694.364 446.424C693.889 440.6 698.488 435.611 704.331 435.611H847.848C853.056 435.611 857.392 431.614 857.815 426.424L860.28 396.228C860.756 390.403 856.157 385.414 850.313 385.414H653.845C648.001 385.414 643.403 390.403 643.878 396.227L654.201 522.732C654.625 527.922 658.961 531.919 664.168 531.919H701.341Z" fill="white"/>
<path d="M570.395 302C565.341 302 561.369 306.325 561.798 311.361L595.169 702.891C595.525 707.06 598.438 710.567 602.471 711.681L749.417 752.265C751.159 752.746 752.999 752.746 754.741 752.265L901.686 711.681C905.719 710.567 908.632 707.06 908.987 702.891L942.233 312.849C942.73 307.013 938.127 302 932.269 302H570.395ZM871.473 668.074C871.117 672.243 868.204 675.75 864.171 676.864L754.741 707.088C752.999 707.569 751.159 707.569 749.416 707.088L639.986 676.864C635.953 675.75 633.04 672.243 632.685 668.074L606.137 356.638C605.64 350.801 610.243 345.788 616.101 345.788H888.055C893.913 345.788 898.517 350.801 898.019 356.638L871.473 668.074Z" fill="white"/>
<defs>
<radialGradient id="paint0_radial_300_54" cx="0" cy="0" r="1" gradientUnits="userSpaceOnUse" gradientTransform="translate(759 128.5) rotate(-90) scale(474 932.108)">
<stop stop-color="#652400"/>
<stop offset="1"/>
</radialGradient>
</defs>
</svg>
