<svg width="1504" height="1056" viewBox="0 0 1504 1056" fill="none" xmlns="http://www.w3.org/2000/svg">
<rect width="1504" height="1056" fill="black"/>
<rect x="108" y="123" width="1288.73" height="809" rx="36" fill="url(#paint0_radial_298_23)" stroke="#262626" stroke-width="20"/>
<path d="M752.598 576.815C780.811 576.815 801.971 555.591 801.971 527.293C801.971 498.994 780.811 477.77 752.598 477.77C724.385 477.77 703.225 498.994 703.225 527.293C703.225 555.591 724.385 576.815 752.598 576.815Z" fill="#7795FF"/>
<path d="M1016.86 526.821C1016.86 489.09 972.192 458.433 906.361 437.209C922.818 368.821 915.765 314.582 885.201 298.075C875.796 293.358 868.743 291 859.338 291C828.774 291 791.156 312.224 753.538 349.955C713.569 312.224 675.952 291 645.387 291C635.983 291 626.578 293.358 619.525 298.075C588.961 314.582 581.907 368.821 598.365 437.209C532.534 458.433 487.863 489.09 487.863 526.821C487.863 564.552 532.534 595.209 598.365 616.433C581.907 684.821 586.609 739.06 619.525 757.925C626.578 762.642 635.983 765 645.387 765C675.952 765 713.569 743.776 751.187 706.045C788.805 743.776 828.774 765 856.987 765C866.392 765 875.796 762.642 882.849 757.925C913.414 739.06 920.467 684.821 904.009 616.433C972.192 595.209 1016.86 562.194 1016.86 526.821ZM859.338 316.94C864.041 316.94 868.743 316.94 871.094 319.299C885.201 328.731 892.254 359.388 887.552 399.478C885.201 408.91 885.201 420.701 882.849 430.134C861.689 425.418 838.178 420.701 814.667 418.343C800.561 399.478 786.454 380.612 772.347 366.463C805.263 333.448 838.178 316.94 859.338 316.94ZM824.072 569.269C817.018 583.418 807.614 595.209 800.561 609.358C784.103 609.358 769.996 611.716 753.538 611.716C737.081 611.716 720.623 611.716 706.516 609.358C697.112 597.567 690.058 583.418 683.005 569.269C675.952 555.119 668.898 540.97 661.845 526.821C668.898 512.672 675.952 498.522 683.005 484.373C690.058 470.224 699.463 456.075 708.867 444.284C722.974 444.284 739.432 441.925 755.889 441.925C772.347 441.925 786.454 441.925 802.912 444.284C812.316 456.075 819.369 470.224 828.774 484.373C835.827 498.522 842.881 512.672 849.934 526.821C840.529 540.97 831.125 555.119 824.072 569.269ZM859.338 557.478C864.041 571.627 868.743 583.418 873.445 597.567C859.338 599.925 845.232 602.284 831.125 604.642C835.827 597.567 840.53 590.492 845.232 581.06C849.934 573.985 854.636 564.552 859.338 557.478ZM751.187 668.313C741.783 658.881 732.378 647.09 722.974 635.298C732.378 635.298 741.783 635.298 751.187 635.298C760.592 635.298 769.996 635.298 779.401 635.298C769.996 647.09 760.592 658.881 751.187 668.313ZM671.249 604.642C657.143 602.284 643.036 599.925 628.929 597.567C633.632 583.418 638.334 571.627 643.036 557.478C647.738 564.552 652.441 573.985 657.143 581.06C661.845 590.492 666.547 597.567 671.249 604.642ZM645.387 496.164C640.685 482.015 635.983 467.866 631.281 456.075C645.387 453.716 659.494 451.358 673.601 449C668.898 456.075 664.196 465.507 659.494 472.582C652.441 479.657 647.738 489.09 645.387 496.164ZM751.187 385.328C760.592 394.761 769.996 406.552 779.401 418.343C769.996 418.343 760.592 418.343 751.187 418.343C741.783 418.343 732.378 418.343 722.974 418.343C732.378 406.552 741.783 394.761 751.187 385.328ZM845.232 472.582C840.53 463.149 835.827 456.075 831.125 449C845.232 451.358 859.338 453.716 873.445 456.075C868.743 470.224 864.041 484.373 859.338 496.164C854.636 489.09 849.934 479.657 845.232 472.582ZM617.174 399.478C612.472 359.388 617.174 328.731 633.632 319.299C635.983 316.94 640.685 316.94 645.387 316.94C666.547 316.94 699.463 333.448 734.729 368.821C720.623 385.328 706.516 401.836 692.409 420.701C668.898 423.06 645.387 427.776 624.227 432.493C619.525 420.701 617.174 408.91 617.174 399.478ZM574.854 578.702C537.236 562.194 513.725 543.328 513.725 524.463C513.725 507.955 537.236 486.731 574.854 470.224C584.258 465.507 593.663 463.149 605.418 460.791C612.472 482.015 619.525 503.239 628.929 524.463C619.525 545.687 610.121 566.91 605.418 588.134C593.663 588.134 584.258 583.418 574.854 578.702ZM633.632 734.343C619.525 724.91 612.472 694.254 617.174 654.164C619.525 644.731 619.525 632.94 624.227 621.149C645.387 625.866 666.547 630.582 690.058 632.94C704.165 651.806 718.272 670.672 734.729 687.179C699.463 720.194 666.547 739.06 645.387 739.06C640.685 736.701 635.983 736.701 633.632 734.343ZM887.552 654.164C892.254 694.254 887.552 724.91 871.094 734.343C868.743 736.701 864.041 736.701 859.338 736.701C838.178 736.701 805.263 720.194 769.996 684.821C784.103 668.313 800.561 651.806 814.667 630.582C838.178 628.224 861.689 625.866 880.498 618.791C882.849 632.94 885.201 644.731 887.552 654.164ZM929.872 578.702C920.467 583.418 911.063 585.776 899.307 590.493C892.254 569.269 885.201 548.045 875.796 526.821C885.201 505.597 894.605 482.015 899.307 463.149C911.063 465.507 920.467 470.224 929.872 472.582C967.489 489.09 991.001 507.955 991.001 526.821C991.001 543.328 967.489 564.552 929.872 578.702Z" fill="#7795FF"/>
<defs>
<radialGradient id="paint0_radial_298_23" cx="0" cy="0" r="1" gradientUnits="userSpaceOnUse" gradientTransform="translate(759 128.5) rotate(-90) scale(474 932.108)">
<stop stop-color="#001F8B"/>
<stop offset="1"/>
</radialGradient>
</defs>
</svg>
