<svg width="1504" height="1056" viewBox="0 0 1504 1056" fill="none" xmlns="http://www.w3.org/2000/svg">
<rect width="1504" height="1056" fill="white"/>
<rect x="108" y="123" width="1288.73" height="809" rx="36" fill="url(#paint0_linear_300_42)" stroke="#F1F4FF" stroke-width="20"/>
<path d="M925.655 532.543C912.515 608.152 815.526 634.312 760.707 665.575C760.707 665.575 751.045 671.211 741.883 677.954C741.883 677.954 744.849 674.41 748.827 670.267C781.306 636.516 798.547 624.274 816.238 599.734C849.494 553.707 868.676 480.551 851.166 423.64C859.635 482.644 829.55 552.471 791.038 594.219C764.68 622.777 711.872 664.393 711.856 664.401C710.849 664.399 709.842 664.381 708.836 664.348C658.967 665.243 613.646 579.171 671.995 514.261C697.587 485.801 731.428 477.022 761.654 451.292C793.885 423.869 822.352 374.688 821.271 329.897C869.933 377.557 939.026 455.664 925.655 532.543ZM813.797 311.286C814.834 324.791 814.272 338.369 812.124 351.739C788.53 343.66 763.559 340.404 738.694 342.164C713.829 343.924 689.576 350.664 667.373 361.985C575.623 408.735 539.072 521.478 585.874 613.332C597.538 636.249 613.812 656.509 633.672 672.835C653.533 689.161 676.55 701.202 701.276 708.198L706.575 709.563C702.55 708.248 699.21 705.389 697.288 701.612C695.367 697.835 695.022 693.451 696.33 689.424C697.637 685.396 700.49 682.055 704.261 680.135C708.032 678.215 712.412 677.872 716.438 679.183C720.465 680.495 723.807 683.352 725.732 687.127C727.656 690.902 728.005 695.285 726.7 699.314C725.396 703.343 722.546 706.686 718.777 708.61C715.008 710.533 710.628 710.879 706.601 709.571L710.195 710.506C753.005 720.586 797.983 715.145 837.13 695.151C924.81 650.476 962.008 545.449 924.234 456.077C907.266 411.524 867.482 364.244 813.797 311.286Z" fill="#6CA84F"/>
<defs>
<linearGradient id="paint0_linear_300_42" x1="760.779" y1="1263.22" x2="757.974" y2="117.91" gradientUnits="userSpaceOnUse">
<stop stop-color="#6CA84F" stop-opacity="0.03"/>
<stop stop-color="#6CA84F" stop-opacity="0.4"/>
<stop offset="0.532099" stop-color="#F6F8FF" stop-opacity="0.953459"/>
<stop offset="1" stop-color="white"/>
</linearGradient>
</defs>
</svg>
