<svg width="1504" height="1056" viewBox="0 0 1504 1056" fill="none" xmlns="http://www.w3.org/2000/svg">
<rect width="1504" height="1056" fill="black"/>
<rect x="108" y="123" width="1288.73" height="809" rx="36" fill="url(#paint0_radial_300_81)" stroke="#262626" stroke-width="20"/>
<path d="M623.476 466.25C623.476 451.613 610.863 436.068 589.036 436.068C564.526 436.068 537.6 456.358 533.485 496.836C529.281 537.718 551.823 555.888 574.545 555.888C597.266 555.888 609.164 545.895 621.329 532.57C610.863 517.732 597.356 524.596 594.761 526.11C591.899 527.725 588.231 529.946 580.717 529.946C571.951 529.946 563.005 525.504 563.005 507.032C619.183 500.773 623.476 480.887 623.476 466.25ZM595.656 468.673C595.298 473.215 593.688 480.988 565.241 485.329C571.235 461.304 582.685 459.487 587.963 459.487C592.883 459.487 596.014 463.828 595.656 468.673ZM500.476 472.61C500.476 472.61 488.4 515.41 487.416 518.943C487.058 515.309 478.202 438.491 478.202 438.491C457.628 438.491 446.625 455.046 440.81 472.509C440.81 472.509 426.14 515.41 424.887 519.044C424.798 515.713 422.651 473.014 422.651 473.014C421.399 451.613 404.044 438.592 390 438.592L406.996 554.98C428.555 554.879 440.184 538.425 446.267 520.962C446.267 520.962 459.238 483.108 459.775 481.392C459.864 483.007 469.078 554.98 469.078 554.98C490.726 554.98 502.355 539.535 508.617 522.678L538.942 438.592C517.562 438.592 506.291 455.046 500.476 472.61ZM702.912 435.866C689.583 435.866 679.385 444.043 670.798 456.055L670.798 455.954L678.491 386C660.779 386 646.377 403.362 643.604 429.204L630.185 554.071C640.383 554.071 651.207 550.74 657.022 542.261C662.21 549.832 669.993 555.888 681.532 555.888C711.41 555.888 731.895 516.722 731.895 479.979C731.716 446.465 717.314 435.866 702.912 435.866ZM700.139 495.928C697.008 516.419 686.9 530.35 677.149 530.35C667.309 530.35 663.105 525.403 663.105 525.403C664.983 507.435 666.146 496.432 669.724 486.944C673.303 477.455 681.801 462.313 690.657 462.313C699.334 462.313 703.27 475.335 700.139 495.928ZM806.5 438.592L785.658 438.592L785.747 437.38C787.178 422.037 790.399 413.961 801.044 412.649C808.289 411.842 811.51 407.602 812.315 402.959C812.941 399.325 814.909 386.707 814.909 386.707C773.044 386.404 759.895 406.794 756.495 437.885L756.406 438.592L755.959 438.592C749.16 438.592 741.646 447.273 740.393 458.276L739.946 462.313L753.901 462.313L742.183 571.535L738.604 591.118C739.052 591.118 739.588 591.219 740.036 591.219C759.626 590.411 772.15 572.948 774.923 547.611L784.047 462.313L790.577 462.313C797.018 462.313 804.532 455.046 805.874 442.932L806.5 438.592ZM914.919 436.573C890.856 436.573 868.135 456.56 861.157 487.953C854.18 519.347 864.735 556.494 900.159 556.494C935.494 556.494 955.89 517.833 955.89 485.631C955.89 453.632 936.657 436.573 914.919 436.573ZM924.67 494.918C923.418 509.151 917.871 530.753 902.664 530.753C887.367 530.753 889.514 505.517 891.035 493.505C892.645 480.685 898.996 462.414 912.683 462.414C924.938 462.414 926.101 478.868 924.67 494.918ZM1074.77 472.61C1074.77 472.61 1062.7 515.41 1061.71 518.943C1061.36 515.309 1052.5 438.491 1052.5 438.491C1031.93 438.491 1020.92 455.046 1015.11 472.509C1015.11 472.509 1000.44 515.41 999.185 519.044C999.096 515.713 996.949 473.014 996.949 473.014C995.697 451.613 978.343 438.592 964.298 438.592L981.205 554.98C1002.76 554.879 1014.39 538.425 1020.48 520.962C1020.48 520.962 1033.45 483.108 1033.89 481.392C1033.98 483.007 1043.2 554.98 1043.2 554.98C1064.85 554.98 1076.47 539.535 1082.74 522.678L1113.06 438.592C1091.77 438.592 1080.5 455.046 1074.77 472.61ZM826.18 386.707L808.647 546.299L805.069 565.983C805.516 565.983 806.053 566.084 806.5 566.084C825.375 565.781 838.793 547.106 841.298 523.586L851.407 432.03C854.448 404.069 839.688 386.707 826.18 386.707Z" fill="#929292"/>
<defs>
<radialGradient id="paint0_radial_300_81" cx="0" cy="0" r="1" gradientUnits="userSpaceOnUse" gradientTransform="translate(759 128.5) rotate(-90) scale(474 932.108)">
<stop stop-color="#3C3C3C"/>
<stop offset="1"/>
</radialGradient>
</defs>
</svg>
