<svg width="1504" height="1056" viewBox="0 0 1504 1056" fill="none" xmlns="http://www.w3.org/2000/svg">
<rect width="1504" height="1056" fill="white"/>
<rect x="108" y="123" width="1288.73" height="809" rx="36" fill="url(#paint0_linear_300_77)" stroke="#F1F4FF" stroke-width="20"/>
<path d="M623.476 479.25C623.476 464.613 610.863 449.068 589.036 449.068C564.526 449.068 537.6 469.358 533.485 509.836C529.281 550.718 551.823 568.888 574.545 568.888C597.266 568.888 609.164 558.895 621.329 545.57C610.863 530.732 597.356 537.596 594.761 539.11C591.899 540.725 588.231 542.946 580.717 542.946C571.951 542.946 563.005 538.504 563.005 520.032C619.183 513.773 623.476 493.887 623.476 479.25ZM595.656 481.673C595.298 486.215 593.688 493.988 565.241 498.329C571.235 474.304 582.685 472.487 587.963 472.487C592.883 472.487 596.014 476.828 595.656 481.673ZM500.476 485.61C500.476 485.61 488.4 528.41 487.416 531.943C487.058 528.309 478.202 451.491 478.202 451.491C457.628 451.491 446.625 468.046 440.81 485.509C440.81 485.509 426.14 528.41 424.887 532.044C424.798 528.713 422.651 486.014 422.651 486.014C421.399 464.613 404.044 451.592 390 451.592L406.996 567.98C428.555 567.879 440.184 551.425 446.267 533.962C446.267 533.962 459.238 496.108 459.775 494.392C459.864 496.007 469.078 567.98 469.078 567.98C490.726 567.98 502.355 552.535 508.617 535.678L538.942 451.592C517.562 451.592 506.291 468.046 500.476 485.61ZM702.912 448.866C689.583 448.866 679.385 457.043 670.798 469.055L670.798 468.954L678.491 399C660.779 399 646.377 416.362 643.604 442.204L630.185 567.071C640.383 567.071 651.207 563.74 657.022 555.261C662.21 562.832 669.993 568.888 681.532 568.888C711.41 568.888 731.895 529.722 731.895 492.979C731.716 459.465 717.314 448.866 702.912 448.866ZM700.139 508.928C697.008 529.419 686.9 543.35 677.149 543.35C667.309 543.35 663.105 538.403 663.105 538.403C664.983 520.435 666.146 509.432 669.724 499.944C673.303 490.455 681.801 475.313 690.657 475.313C699.334 475.313 703.27 488.335 700.139 508.928ZM806.5 451.592L785.658 451.592L785.747 450.38C787.178 435.037 790.399 426.961 801.044 425.649C808.289 424.842 811.51 420.602 812.315 415.959C812.941 412.325 814.909 399.707 814.909 399.707C773.044 399.404 759.895 419.794 756.495 450.885L756.406 451.592L755.959 451.592C749.16 451.592 741.646 460.273 740.393 471.276L739.946 475.313L753.901 475.313L742.183 584.535L738.604 604.118C739.052 604.118 739.588 604.219 740.036 604.219C759.626 603.411 772.15 585.948 774.923 560.611L784.047 475.313L790.577 475.313C797.018 475.313 804.532 468.046 805.874 455.932L806.5 451.592ZM914.919 449.573C890.856 449.573 868.135 469.56 861.157 500.953C854.18 532.347 864.735 569.494 900.159 569.494C935.494 569.494 955.89 530.833 955.89 498.631C955.89 466.632 936.657 449.573 914.919 449.573ZM924.67 507.918C923.418 522.151 917.871 543.753 902.664 543.753C887.367 543.753 889.514 518.517 891.035 506.505C892.645 493.685 898.996 475.414 912.683 475.414C924.938 475.414 926.101 491.868 924.67 507.918ZM1074.77 485.61C1074.77 485.61 1062.7 528.41 1061.71 531.943C1061.36 528.309 1052.5 451.491 1052.5 451.491C1031.93 451.491 1020.92 468.046 1015.11 485.509C1015.11 485.509 1000.44 528.41 999.185 532.044C999.096 528.713 996.949 486.014 996.949 486.014C995.697 464.613 978.343 451.592 964.298 451.592L981.205 567.98C1002.76 567.879 1014.39 551.425 1020.48 533.962C1020.48 533.962 1033.45 496.108 1033.89 494.392C1033.98 496.007 1043.2 567.98 1043.2 567.98C1064.85 567.98 1076.47 552.535 1082.74 535.678L1113.06 451.592C1091.77 451.592 1080.5 468.046 1074.77 485.61ZM826.18 399.707L808.647 559.299L805.069 578.983C805.516 578.983 806.053 579.084 806.5 579.084C825.375 578.781 838.793 560.106 841.298 536.586L851.407 445.03C854.448 417.069 839.688 399.707 826.18 399.707Z" fill="#929292"/>
<defs>
<linearGradient id="paint0_linear_300_77" x1="760.779" y1="1263.22" x2="757.974" y2="117.91" gradientUnits="userSpaceOnUse">
<stop stop-opacity="0.03"/>
<stop stop-opacity="0.4"/>
<stop offset="0.532099" stop-color="#F6F8FF" stop-opacity="0.953459"/>
<stop offset="1" stop-color="white"/>
</linearGradient>
</defs>
</svg>
